<svg width="80" height="80" viewBox="0 0 80 80" fill="none" xmlns="http://www.w3.org/2000/svg">
<circle cx="40" cy="40" r="40" fill="#FFFBF3"/>
<path fill-rule="evenodd" clip-rule="evenodd" d="M40 37.5C41.3809 37.5 42.5 38.6191 42.5 40C42.5 41.3809 41.3809 42.5 40 42.5C38.6191 42.5 37.5 41.3809 37.5 40C37.5 38.6191 38.6191 37.5 40 37.5Z" stroke="#130F26" stroke-width="1.5" stroke-linecap="round" stroke-linejoin="round"/>
<path fill-rule="evenodd" clip-rule="evenodd" d="M48.168 35.2502V35.2502C47.4845 34.058 45.9712 33.65 44.7885 34.3385C43.7598 34.9361 42.4741 34.1884 42.4741 32.9922C42.4741 31.6162 41.3659 30.5 39.9998 30.5V30.5C38.6337 30.5 37.5255 31.6162 37.5255 32.9922C37.5255 34.1884 36.2398 34.9361 35.212 34.3385C34.0283 33.65 32.5151 34.058 31.8315 35.2502C31.149 36.4425 31.554 37.9666 32.7377 38.6541C33.7655 39.2527 33.7655 40.7473 32.7377 41.3459C31.554 42.0343 31.149 43.5585 31.8315 44.7498C32.5151 45.942 34.0283 46.35 35.211 45.6625H35.212C36.2398 45.0639 37.5255 45.8116 37.5255 47.0078V47.0078C37.5255 48.3838 38.6337 49.5 39.9998 49.5V49.5C41.3659 49.5 42.4741 48.3838 42.4741 47.0078V47.0078C42.4741 45.8116 43.7598 45.0639 44.7885 45.6625C45.9712 46.35 47.4845 45.942 48.168 44.7498C48.8515 43.5585 48.4455 42.0343 47.2628 41.3459H47.2618C46.2341 40.7473 46.2341 39.2527 47.2628 38.6541C48.4455 37.9666 48.8515 36.4425 48.168 35.2502Z" stroke="#130F26" stroke-width="1.5" stroke-linecap="round" stroke-linejoin="round"/>
</svg>
