<svg width="80" height="80" viewBox="0 0 80 80" fill="none" xmlns="http://www.w3.org/2000/svg">
<circle cx="40" cy="40" r="40" fill="#FFFBF3"/>
<path fill-rule="evenodd" clip-rule="evenodd" d="M40 31C37.9638 31 37.7713 34.5465 36.5591 35.7996C35.3469 37.0526 31.5782 35.6199 31.0546 37.844C30.5321 40.0693 33.9224 40.8243 34.3404 42.7334C34.7606 44.6426 32.6892 47.3249 34.4592 48.6598C36.2291 49.9936 38.1343 46.9747 40 46.9747C41.8656 46.9747 43.7709 49.9936 45.5408 48.6598C47.3108 47.3249 45.2405 44.6426 45.6596 42.7334C46.0787 40.8243 49.4679 40.0693 48.9454 37.844C48.4229 35.6199 44.6531 37.0526 43.442 35.7996C42.2297 34.5465 42.0361 31 40 31Z" stroke="#130F26" stroke-width="1.5" stroke-linecap="round" stroke-linejoin="round"/>
</svg>
