<svg width="56" height="56" viewBox="0 0 56 56" fill="none" xmlns="http://www.w3.org/2000/svg">
<circle cx="28" cy="28" r="28" fill="#4807EA"/>
<g clip-path="url(#clip0_203_1663)">
<path d="M39.6667 29.7503V38.5003C39.6667 38.8097 39.5438 39.1065 39.325 39.3253C39.1062 39.5441 38.8094 39.667 38.5 39.667H37.3333C37.0239 39.667 36.7272 39.5441 36.5084 39.3253C36.2896 39.1065 36.1667 38.8097 36.1667 38.5003V37.3337H19.8333V38.5003C19.8333 38.8097 19.7104 39.1065 19.4916 39.3253C19.2728 39.5441 18.9761 39.667 18.6667 39.667H17.5C17.1906 39.667 16.8938 39.5441 16.675 39.3253C16.4562 39.1065 16.3333 38.8097 16.3333 38.5003V29.7503L14.8832 29.3887C14.6309 29.3255 14.4069 29.1798 14.2469 28.9747C14.0869 28.7697 14 28.5171 14 28.257V27.417C14 27.2623 14.0615 27.1139 14.1709 27.0045C14.2803 26.8951 14.4286 26.8337 14.5833 26.8337H16.7708L19.2652 20.1813C19.4319 19.7365 19.7305 19.3531 20.121 19.0825C20.5115 18.8119 20.9752 18.6669 21.4503 18.667H34.5497C35.0248 18.6669 35.4885 18.8119 35.879 19.0825C36.2695 19.3531 36.5681 19.7365 36.7348 20.1813L39.2292 26.8337H41.4167C41.5714 26.8337 41.7197 26.8951 41.8291 27.0045C41.9385 27.1139 42 27.2623 42 27.417V28.257C42 28.5171 41.9131 28.7697 41.7531 28.9747C41.5931 29.1798 41.3691 29.3255 41.1168 29.3887L39.6667 29.7503ZM18.6667 31.5003V33.8337C18.6667 34.1431 18.7896 34.4398 19.0084 34.6586C19.2272 34.8774 19.5239 35.0003 19.8333 35.0003H23.6192C23.7199 35.0002 23.8189 34.9739 23.9065 34.9241C23.994 34.8744 24.0672 34.8028 24.1189 34.7163C24.1706 34.6299 24.199 34.5315 24.2014 34.4308C24.2038 34.3301 24.18 34.2305 24.1325 34.1417C23.1933 32.38 21.371 31.5003 18.6667 31.5003ZM37.3333 31.5003C34.6302 31.5003 32.8078 32.3812 31.8663 34.1417C31.8187 34.2306 31.795 34.3303 31.7974 34.4311C31.7999 34.5319 31.8284 34.6303 31.8802 34.7168C31.932 34.8033 32.0054 34.8749 32.0931 34.9246C32.1809 34.9743 32.28 35.0004 32.3808 35.0003H36.1667C36.4761 35.0003 36.7728 34.8774 36.9916 34.6586C37.2104 34.4398 37.3333 34.1431 37.3333 33.8337V31.5003ZM21 21.0003L19.1788 26.465C19.1204 26.6403 19.1045 26.8269 19.1324 27.0096C19.1603 27.1922 19.2311 27.3657 19.3391 27.5156C19.4471 27.6655 19.5891 27.7876 19.7536 27.8719C19.918 27.9562 20.1001 28.0002 20.2848 28.0003H35.7152C35.8999 28.0002 36.082 27.9562 36.2464 27.8719C36.4109 27.7876 36.5529 27.6655 36.6609 27.5156C36.7689 27.3657 36.8397 27.1922 36.8676 27.0096C36.8955 26.8269 36.8796 26.6403 36.8212 26.465L35 21.0003H21Z" fill="white"/>
</g>
<defs>
<clipPath id="clip0_203_1663">
<rect width="28" height="28" fill="white" transform="translate(14 14)"/>
</clipPath>
</defs>
</svg>
