<svg width="56" height="56" viewBox="0 0 56 56" fill="none" xmlns="http://www.w3.org/2000/svg">
<circle cx="28" cy="28" r="28" fill="#EF5DA8"/>
<path d="M21.5238 23C25.4143 21.7439 29.9724 21.4557 32 21.5C34.0276 21.5443 34.8831 22.2663 35.5 23.5C36.5 25.5 36.289 30.4881 34.5 32.0871C32.712 33.6861 25.3301 33.8381 22.8701 32.0871C20.2711 30.2361 21.629 25.192 21.544 21.743C21.595 19.813 19.5 19.5 19.5 19.5" stroke="white" stroke-width="1.5" stroke-linecap="round" stroke-linejoin="round"/>
<path d="M29 26.5H31.773" stroke="white" stroke-width="1.5" stroke-linecap="round" stroke-linejoin="round"/>
<path fill-rule="evenodd" clip-rule="evenodd" d="M23.2638 36.127C23.5638 36.127 23.8077 36.371 23.8077 36.671C23.8077 36.972 23.5638 37.216 23.2638 37.216C22.9628 37.216 22.7188 36.972 22.7188 36.671C22.7188 36.371 22.9628 36.127 23.2638 36.127Z" fill="white" stroke="white" stroke-width="1.5" stroke-linecap="round" stroke-linejoin="round"/>
<path fill-rule="evenodd" clip-rule="evenodd" d="M33.5953 36.127C33.8963 36.127 34.1403 36.371 34.1403 36.671C34.1403 36.972 33.8963 37.216 33.5953 37.216C33.2953 37.216 33.0513 36.972 33.0513 36.671C33.0513 36.371 33.2953 36.127 33.5953 36.127Z" fill="white" stroke="white" stroke-width="1.5" stroke-linecap="round" stroke-linejoin="round"/>
</svg>
