<svg width="574" height="338" viewBox="0 0 574 338" fill="none" xmlns="http://www.w3.org/2000/svg">
<g filter="url(#filter0_d_203_1527)">
<g clip-path="url(#clip0_203_1527)">
<rect x="75" y="72" width="424" height="188" rx="24" fill="#FFC248"/>
<path d="M191.904 192.673H175.71C169.813 192.673 165.031 187.891 165.031 181.99C165.031 176.093 169.813 171.312 175.71 171.312H191.777" stroke="#130F26" stroke-width="1.5" stroke-linecap="round" stroke-linejoin="round"/>
<path d="M177.533 181.746H176.295" stroke="#130F26" stroke-width="1.5" stroke-linecap="round" stroke-linejoin="round"/>
<path d="M135.384 165.457H152.3" stroke="#130F26" stroke-width="1.5" stroke-linecap="round" stroke-linejoin="round"/>
<path fill-rule="evenodd" clip-rule="evenodd" d="M115 182.579C115 155.893 124.687 147 153.754 147C182.817 147 192.504 155.893 192.504 182.579C192.504 209.262 182.817 218.159 153.754 218.159C124.687 218.159 115 209.262 115 182.579Z" stroke="#130F26" stroke-width="1.5" stroke-linecap="round" stroke-linejoin="round"/>
<path d="M124.836 106.297C124.721 107.51 124.273 108.458 123.492 109.141C122.711 109.818 121.672 110.156 120.375 110.156C119.469 110.156 118.669 109.943 117.977 109.516C117.289 109.083 116.758 108.471 116.383 107.68C116.008 106.888 115.812 105.969 115.797 104.922V103.859C115.797 102.786 115.987 101.841 116.367 101.023C116.747 100.206 117.292 99.5755 118 99.1328C118.714 98.6901 119.536 98.4688 120.469 98.4688C121.724 98.4688 122.734 98.8099 123.5 99.4922C124.266 100.174 124.711 101.138 124.836 102.383H122.867C122.773 101.565 122.534 100.977 122.148 100.617C121.768 100.253 121.208 100.07 120.469 100.07C119.609 100.07 118.948 100.385 118.484 101.016C118.026 101.641 117.792 102.56 117.781 103.773V104.781C117.781 106.01 118 106.948 118.438 107.594C118.88 108.24 119.526 108.562 120.375 108.562C121.151 108.562 121.734 108.388 122.125 108.039C122.516 107.69 122.763 107.109 122.867 106.297H124.836ZM136.93 98.625V106.227C136.93 107.435 136.542 108.393 135.766 109.102C134.995 109.805 133.966 110.156 132.68 110.156C131.378 110.156 130.344 109.81 129.578 109.117C128.812 108.419 128.43 107.453 128.43 106.219V98.625H130.398V106.234C130.398 106.995 130.591 107.576 130.977 107.977C131.362 108.378 131.93 108.578 132.68 108.578C134.201 108.578 134.961 107.776 134.961 106.172V98.625H136.93ZM145.227 105.617H143.023V110H141.047V98.625H145.047C146.359 98.625 147.372 98.9193 148.086 99.5078C148.799 100.096 149.156 100.948 149.156 102.062C149.156 102.823 148.971 103.461 148.602 103.977C148.237 104.487 147.727 104.88 147.07 105.156L149.625 109.898V110H147.508L145.227 105.617ZM143.023 104.031H145.055C145.721 104.031 146.242 103.865 146.617 103.531C146.992 103.193 147.18 102.732 147.18 102.148C147.18 101.539 147.005 101.068 146.656 100.734C146.312 100.401 145.797 100.229 145.109 100.219H143.023V104.031ZM157.211 105.617H155.008V110H153.031V98.625H157.031C158.344 98.625 159.357 98.9193 160.07 99.5078C160.784 100.096 161.141 100.948 161.141 102.062C161.141 102.823 160.956 103.461 160.586 103.977C160.221 104.487 159.711 104.88 159.055 105.156L161.609 109.898V110H159.492L157.211 105.617ZM155.008 104.031H157.039C157.706 104.031 158.227 103.865 158.602 103.531C158.977 103.193 159.164 102.732 159.164 102.148C159.164 101.539 158.99 101.068 158.641 100.734C158.297 100.401 157.781 100.229 157.094 100.219H155.008V104.031ZM171.664 104.922H166.992V108.422H172.453V110H165.016V98.625H172.398V100.219H166.992V103.359H171.664V104.922ZM185.086 110H183.109L178.039 101.93V110H176.062V98.625H178.039L183.125 106.727V98.625H185.086V110ZM197.406 100.219H193.859V110H191.898V100.219H188.383V98.625H197.406V100.219ZM206.422 110V98.625H210.32C211.607 98.625 212.586 98.8828 213.258 99.3984C213.93 99.9141 214.266 100.682 214.266 101.703C214.266 102.224 214.125 102.693 213.844 103.109C213.562 103.526 213.151 103.849 212.609 104.078C213.224 104.245 213.698 104.56 214.031 105.023C214.37 105.482 214.539 106.034 214.539 106.68C214.539 107.747 214.195 108.568 213.508 109.141C212.826 109.714 211.846 110 210.57 110H206.422ZM208.398 104.867V108.422H210.594C211.214 108.422 211.698 108.268 212.047 107.961C212.396 107.654 212.57 107.227 212.57 106.68C212.57 105.497 211.966 104.893 210.758 104.867H208.398ZM208.398 103.414H210.336C210.951 103.414 211.43 103.276 211.773 103C212.122 102.719 212.297 102.323 212.297 101.812C212.297 101.25 212.135 100.844 211.812 100.594C211.495 100.344 210.997 100.219 210.32 100.219H208.398V103.414ZM224.883 107.352H220.477L219.555 110H217.5L221.797 98.625H223.57L227.875 110H225.812L224.883 107.352ZM221.031 105.758H224.328L222.68 101.039L221.031 105.758ZM233.148 108.422H238.312V110H231.172V98.625H233.148V108.422ZM248.352 107.352H243.945L243.023 110H240.969L245.266 98.625H247.039L251.344 110H249.281L248.352 107.352ZM244.5 105.758H247.797L246.148 101.039L244.5 105.758ZM263.664 110H261.688L256.617 101.93V110H254.641V98.625H256.617L261.703 106.727V98.625H263.664V110ZM276.68 106.297C276.565 107.51 276.117 108.458 275.336 109.141C274.555 109.818 273.516 110.156 272.219 110.156C271.312 110.156 270.513 109.943 269.82 109.516C269.133 109.083 268.602 108.471 268.227 107.68C267.852 106.888 267.656 105.969 267.641 104.922V103.859C267.641 102.786 267.831 101.841 268.211 101.023C268.591 100.206 269.135 99.5755 269.844 99.1328C270.557 98.6901 271.38 98.4688 272.312 98.4688C273.568 98.4688 274.578 98.8099 275.344 99.4922C276.109 100.174 276.555 101.138 276.68 102.383H274.711C274.617 101.565 274.378 100.977 273.992 100.617C273.612 100.253 273.052 100.07 272.312 100.07C271.453 100.07 270.792 100.385 270.328 101.016C269.87 101.641 269.635 102.56 269.625 103.773V104.781C269.625 106.01 269.844 106.948 270.281 107.594C270.724 108.24 271.37 108.562 272.219 108.562C272.995 108.562 273.578 108.388 273.969 108.039C274.359 107.69 274.607 107.109 274.711 106.297H276.68ZM287.102 104.922H282.43V108.422H287.891V110H280.453V98.625H287.836V100.219H282.43V103.359H287.102V104.922Z" fill="#130F26"/>
<path d="M437.076 99.6351C435.877 65.793 449.232 59.1638 456.06 60.0794H527V265H466.551C463.054 251.265 458.158 214.896 466.551 179.296C477.042 134.796 438.574 141.938 437.076 99.6351Z" fill="#FFFBF3"/>
<path opacity="0.5" d="M403.948 110.393C395.714 77.5454 407.392 68.2755 414.261 67.7464L483.64 52.9448L526.396 253.355L467.277 265.968C460.992 253.265 448.615 218.718 449.395 182.15C450.371 136.44 414.24 151.451 403.948 110.393Z" fill="white"/>
<path d="M470.489 103.078L473.367 101.745L473.942 102.985L471.063 104.318L472.573 107.579L471.255 108.19L469.745 104.929L466.866 106.262L466.292 105.021L469.17 103.688L467.775 100.675L469.094 100.065L470.489 103.078Z" fill="#FFC248"/>
<path d="M479.321 146.241L481.83 148.182L480.993 149.263L478.484 147.323L476.286 150.165L475.136 149.276L477.335 146.434L474.826 144.493L475.662 143.412L478.171 145.352L480.203 142.726L481.352 143.615L479.321 146.241Z" fill="#EB001B"/>
<g filter="url(#filter1_f_203_1527)">
<path d="M490.321 191.241L492.83 193.182L491.993 194.263L489.484 192.323L487.286 195.165L486.136 194.276L488.335 191.434L485.826 189.493L486.662 188.412L489.171 190.352L491.203 187.726L492.352 188.615L490.321 191.241Z" fill="#FFC248"/>
</g>
<path d="M480.321 233.241L482.83 235.182L481.993 236.263L479.484 234.323L477.286 237.165L476.136 236.276L478.335 233.434L475.826 231.493L476.662 230.412L479.171 232.352L481.203 229.726L482.352 230.615L480.321 233.241Z" fill="black"/>
</g>
</g>
<defs>
<filter id="filter0_d_203_1527" x="0" y="0" width="574" height="338" filterUnits="userSpaceOnUse" color-interpolation-filters="sRGB">
<feFlood flood-opacity="0" result="BackgroundImageFix"/>
<feColorMatrix in="SourceAlpha" type="matrix" values="0 0 0 0 0 0 0 0 0 0 0 0 0 0 0 0 0 0 127 0" result="hardAlpha"/>
<feOffset dy="3"/>
<feGaussianBlur stdDeviation="37.5"/>
<feComposite in2="hardAlpha" operator="out"/>
<feColorMatrix type="matrix" values="0 0 0 0 0 0 0 0 0 0 0 0 0 0 0 0 0 0 0.1 0"/>
<feBlend mode="normal" in2="BackgroundImageFix" result="effect1_dropShadow_203_1527"/>
<feBlend mode="normal" in="SourceGraphic" in2="effect1_dropShadow_203_1527" result="shape"/>
</filter>
<filter id="filter1_f_203_1527" x="481.627" y="183.785" width="15.2339" height="15.3203" filterUnits="userSpaceOnUse" color-interpolation-filters="sRGB">
<feFlood flood-opacity="0" result="BackgroundImageFix"/>
<feBlend mode="normal" in="SourceGraphic" in2="BackgroundImageFix" result="shape"/>
<feGaussianBlur stdDeviation="1" result="effect1_foregroundBlur_203_1527"/>
</filter>
<clipPath id="clip0_203_1527">
<rect x="75" y="72" width="424" height="188" rx="24" fill="white"/>
</clipPath>
</defs>
</svg>
