<svg width="32" height="32" viewBox="0 0 32 32" fill="none" xmlns="http://www.w3.org/2000/svg">
<circle cx="16" cy="16" r="16" fill="#452F02"/>
<g clip-path="url(#clip0_203_1600)">
<path d="M19.3332 10.667C20.394 10.667 21.4115 11.0884 22.1616 11.8386C22.9117 12.5887 23.3332 13.6061 23.3332 14.667V17.3337C23.3332 18.3945 22.9117 19.4119 22.1616 20.1621C21.4115 20.9122 20.394 21.3337 19.3332 21.3337H12.6665C11.6056 21.3337 10.5882 20.9122 9.83808 20.1621C9.08793 19.4119 8.6665 18.3945 8.6665 17.3337V14.667C8.6665 13.6061 9.08793 12.5887 9.83808 11.8386C10.5882 11.0884 11.6056 10.667 12.6665 10.667H19.3332ZM14.6665 14.0003H13.3332V15.3337H11.9998V16.667H13.3325L13.3332 18.0003H14.6665L14.6658 16.667H15.9998V15.3337H14.6665V14.0003ZM19.9998 16.667H18.6665V18.0003H19.9998V16.667ZM18.6665 14.0003H17.3332V15.3337H18.6665V14.0003Z" fill="white"/>
</g>
<defs>
<clipPath id="clip0_203_1600">
<rect width="16" height="16" fill="white" transform="translate(8 8)"/>
</clipPath>
</defs>
</svg>
