<svg width="80" height="80" viewBox="0 0 80 80" fill="none" xmlns="http://www.w3.org/2000/svg">
<circle cx="40" cy="40" r="40" fill="#FFC248"/>
<path fill-rule="evenodd" clip-rule="evenodd" d="M49.0003 34.6738C49.0003 36.7024 47.3551 38.3476 45.3265 38.3476C43.2979 38.3476 41.6536 36.7024 41.6536 34.6738C41.6536 32.6452 43.2979 31 45.3265 31C47.3551 31 49.0003 32.6452 49.0003 34.6738Z" stroke="white" stroke-width="1.5" stroke-linecap="round" stroke-linejoin="round"/>
<path fill-rule="evenodd" clip-rule="evenodd" d="M38.3467 34.6738C38.3467 36.7024 36.7024 38.3476 34.6729 38.3476C32.6452 38.3476 31 36.7024 31 34.6738C31 32.6452 32.6452 31 34.6729 31C36.7024 31 38.3467 32.6452 38.3467 34.6738Z" stroke="white" stroke-width="1.5" stroke-linecap="round" stroke-linejoin="round"/>
<path fill-rule="evenodd" clip-rule="evenodd" d="M49.0003 45.2617C49.0003 47.2903 47.3551 48.9346 45.3265 48.9346C43.2979 48.9346 41.6536 47.2903 41.6536 45.2617C41.6536 43.2331 43.2979 41.5879 45.3265 41.5879C47.3551 41.5879 49.0003 43.2331 49.0003 45.2617Z" stroke="white" stroke-width="1.5" stroke-linecap="round" stroke-linejoin="round"/>
<path fill-rule="evenodd" clip-rule="evenodd" d="M38.3467 45.2617C38.3467 47.2903 36.7024 48.9346 34.6729 48.9346C32.6452 48.9346 31 47.2903 31 45.2617C31 43.2331 32.6452 41.5879 34.6729 41.5879C36.7024 41.5879 38.3467 43.2331 38.3467 45.2617Z" stroke="white" stroke-width="1.5" stroke-linecap="round" stroke-linejoin="round"/>
</svg>
