<svg width="56" height="56" viewBox="0 0 56 56" fill="none" xmlns="http://www.w3.org/2000/svg">
<circle cx="28" cy="28" r="28" fill="#F2C94C"/>
<path fill-rule="evenodd" clip-rule="evenodd" d="M27.5921 29.0009C27.5921 30.0997 26.7017 30.9901 25.603 30.9901C24.5042 30.9901 23.6138 30.0997 23.6138 29.0009C23.6138 27.9021 24.5042 27.0117 25.603 27.0117H25.6062C26.7039 27.0128 27.5921 27.9032 27.5921 29.0009Z" stroke="white" stroke-width="1.5" stroke-linecap="round" stroke-linejoin="round"/>
<path d="M27.5952 29.001H34.3812V30.9902" stroke="white" stroke-width="1.5" stroke-linecap="round" stroke-linejoin="round"/>
<path d="M31.3437 30.9902V29.001" stroke="white" stroke-width="1.5" stroke-linecap="round" stroke-linejoin="round"/>
<path fill-rule="evenodd" clip-rule="evenodd" d="M19.0649 29.0006C19.0649 21.5498 21.5493 19.0654 29.0001 19.0654C36.451 19.0654 38.9353 21.5498 38.9353 29.0006C38.9353 36.4515 36.451 38.9358 29.0001 38.9358C21.5493 38.9358 19.0649 36.4515 19.0649 29.0006Z" stroke="white" stroke-width="1.5" stroke-linecap="round" stroke-linejoin="round"/>
</svg>
