<svg width="93" height="92" viewBox="0 0 93 92" fill="none" xmlns="http://www.w3.org/2000/svg">
<path d="M62.2029 77.1465L68.9477 85.7488C76.6686 81.4575 83.0166 75.0009 87.1702 67.1984L79.7741 53.2127L90.3796 59.5716C91.7598 55.2088 92.5151 50.5663 92.5151 45.7483C92.5151 43.7652 92.3718 41.8146 92.1307 39.8965L77.6127 27.9457L89.4748 29.3437C87.3393 23.791 84.149 18.7649 80.1517 14.493L66.5514 11.4761L74.7287 9.56448C66.9813 3.57612 57.2676 0 46.7143 0C36.1609 0 26.4474 3.57612 18.7 9.56448L26.8771 11.4761L13.2769 14.493C9.27943 18.7584 6.08935 23.791 3.95394 29.3437L15.8159 27.9457L1.29769 39.8965C1.05029 41.8146 0.913574 43.7652 0.913574 45.7483C0.913574 50.5663 1.66227 55.2088 3.04899 59.5716L13.6544 53.2127L6.25862 67.1984C10.4123 75.0009 16.7599 81.4575 24.4813 85.7488L31.226 77.1465V88.8115C36.0633 90.5475 41.2847 91.5033 46.7209 91.5033C52.157 91.5033 57.3783 90.5536 62.2158 88.8115V77.1465H62.2029Z" fill="#FFC248"/>
<path d="M79.7809 53.2191L83.1989 55.2673L77.6128 50.6703L89.475 52.0683C87.3395 46.5155 84.1491 41.4895 80.1518 37.2176L66.5515 34.2007L74.7288 32.2891C66.9815 26.3007 57.2678 22.7246 46.7145 22.7246C36.1611 22.7246 26.4476 26.3007 18.7002 32.2891L26.8773 34.2007L13.277 37.2176C9.27962 41.483 6.08952 46.5155 3.9541 52.0683L15.8161 50.6703L10.2301 55.2673L13.6481 53.2191L6.25228 67.2051C8.04267 70.5602 10.2367 73.6679 12.7692 76.464L13.6416 75.937L13.1468 76.8737C16.4216 80.3911 20.2366 83.4016 24.4749 85.7555L31.2197 77.1532V88.8177C36.0569 90.5536 41.2783 91.5094 46.7145 91.5094C52.1507 91.5094 57.3723 90.5604 62.2092 88.8177V77.1532L68.954 85.7555C73.1924 83.4016 77.0076 80.3911 80.2822 76.8737L79.7877 75.937L80.6599 76.464C83.1921 73.6679 85.3928 70.5664 87.1765 67.2051L79.7809 53.2191Z" fill="#E99E09"/>
<path d="M57.3068 67.4845C56.1999 68.6873 54.8783 70.1308 53.5501 71.5743C49.9108 75.534 43.6608 75.534 40.028 71.5743L36.1153 67.3156C34.6569 65.7289 35.1387 63.1674 37.0918 62.27C41.0111 60.4622 47.834 58.7201 56.2259 62.3934C58.2374 63.2712 58.791 65.8653 57.3068 67.4845Z" fill="#FFC248"/>
<path d="M71.5648 40.9819L66.9291 32.5293C66.7993 32.2887 66.8055 31.9896 66.9488 31.7555L70.0998 26.6514C70.4707 26.0467 69.8913 25.299 69.2467 25.5526L64.3969 27.5097C63.804 27.7503 63.2313 27.1131 63.4915 26.5084L65.1522 22.6787C65.4124 22.0675 64.833 21.4368 64.2407 21.6839L57.3329 24.5643C56.773 24.7984 56.2131 24.2457 56.3954 23.6475L57.6779 19.4147C57.8864 18.732 57.1373 18.1663 56.5842 18.5889L47.1246 25.7346C46.8772 25.9232 46.5386 25.9232 46.2913 25.7346L36.8316 18.5889C36.2783 18.1728 35.5295 18.732 35.7379 19.4147L37.0204 23.6475C37.2027 24.2457 36.6363 24.7918 36.0829 24.5643L29.1754 21.6839C28.5829 21.4368 28.0035 22.074 28.2639 22.6787L29.9241 26.5084C30.1845 27.1131 29.6116 27.7503 29.0191 27.5097L24.1689 25.5526C23.5243 25.2925 22.9449 26.0467 23.316 26.6514L26.4671 31.7555C26.6103 31.9896 26.6168 32.2887 26.4866 32.5293L21.8447 40.9819C21.6624 41.32 21.7535 41.7426 22.0595 41.9637L33.1077 49.8962C33.3616 50.0782 33.4787 50.4163 33.3876 50.7285L29.4033 63.0756C29.3251 63.336 29.3967 63.6223 29.592 63.817L30.9332 64.9417C34.5725 67.9977 39.8134 68.2189 43.7001 65.4817C45.3798 64.298 46.7144 63.3422 46.7144 63.3422C46.7144 63.3422 48.049 64.298 49.7287 65.4817C53.609 68.2121 58.8564 67.9916 62.489 64.9417L63.8304 63.817C64.0192 63.6223 64.0906 63.336 64.0192 63.0756L60.0349 50.7285C59.9438 50.4163 60.0545 50.0848 60.3147 49.8962L71.3631 41.9637C71.6559 41.7426 71.7469 41.3135 71.5648 40.9819Z" fill="white"/>
<path d="M51.9682 57.069C53.2117 56.8871 53.6674 55.3394 52.7169 54.5136C51.1545 53.1482 48.5242 52.0754 44.7157 52.8036C42.8927 53.1547 41.5776 53.987 40.6661 54.8192C39.7417 55.6709 40.2365 57.2053 41.4865 57.3552L44.2013 57.6802C44.7417 57.7453 45.2039 58.1028 45.3992 58.6102L45.9657 60.0795C46.2717 60.8793 47.4044 60.8664 47.6974 60.0666L48.3094 58.389C48.4917 57.8816 48.9409 57.5174 49.4747 57.4394L51.9682 57.069Z" fill="#171314"/>
<path d="M42.1441 46.6974L40.2626 41.9964C39.872 41.0276 38.9995 40.3319 37.9644 40.1693L30.0868 38.921C29.3836 38.8104 29.0647 39.7662 29.6896 40.0978L32.5673 41.6388C32.5673 41.6388 33.4592 46.9055 39.0972 45.1239L41.0829 47.3476C41.5581 47.8808 42.411 47.3541 42.1441 46.6974Z" fill="#171314"/>
<path d="M51.2653 46.6974L53.1468 41.9964C53.5374 41.0276 54.4098 40.3319 55.445 40.1693L63.3225 38.921C64.0255 38.8104 64.3447 39.7662 63.7198 40.0978L60.8419 41.6388C60.8419 41.6388 59.9501 46.9055 54.3122 45.1239L52.3265 47.3476C51.8512 47.8808 51.0048 47.3541 51.2653 46.6974Z" fill="#171314"/>
</svg>
